<?xml version="1.0" standalone="no"?>
<!DOCTYPE svg PUBLIC "-//W3C//DTD SVG 20010904//EN"
 "http://www.w3.org/TR/2001/REC-SVG-20010904/DTD/svg10.dtd">
<svg version="1.0" xmlns="http://www.w3.org/2000/svg"
 width="300.000000pt" height="300.000000pt" viewBox="0 0 300.000000 300.000000"
 preserveAspectRatio="xMidYMid meet">
<metadata>
Created by potrace 1.14, written by Peter Selinger 2001-2017
</metadata>
<g transform="translate(0.000000,300.000000) scale(0.100000,-0.100000)"
fill="#000000" stroke="none">
<path d="M1409 2340 c-65 -10 -160 -42 -195 -65 -13 -8 -27 -27 -30 -42 -6
-21 -2 -31 20 -50 36 -31 48 -29 39 5 -15 59 -11 65 52 92 54 22 73 25 200 25
161 0 257 -17 392 -69 48 -19 90 -30 94 -25 10 17 189 -45 189 -66 0 -12 -58
-44 -108 -60 -13 -4 -22 -9 -19 -11 2 -2 73 -13 158 -24 188 -26 232 -36 286
-67 50 -28 63 -48 63 -97 l0 -35 -117 -3 c-65 -2 -111 -6 -103 -9 8 -4 76 -16
150 -28 163 -25 348 -71 384 -94 65 -43 1 -118 -144 -168 -54 -18 -94 -23
-232 -26 -94 -3 -165 -9 -162 -14 3 -5 17 -9 32 -10 60 -2 -43 -17 -167 -24
-84 -5 -123 -4 -116 3 11 11 156 46 260 62 39 6 83 18 99 26 22 11 38 12 67 4
46 -13 112 1 149 31 20 17 21 20 5 14 -44 -14 -107 -17 -148 -6 -37 9 -50 8
-76 -5 -34 -17 -97 -21 -148 -10 -34 8 -45 26 -16 26 18 0 83 46 83 60 0 5
-14 5 -32 -1 -57 -16 -198 -10 -258 11 -30 10 -58 16 -62 14 -17 -10 -7 -23
27 -35 19 -7 35 -16 35 -20 0 -4 -32 -13 -72 -19 -102 -18 -312 -8 -412 19
-44 12 -81 20 -82 18 -2 -2 25 -23 60 -49 75 -54 91 -87 69 -139 l-15 -34 -10
28 c-24 66 -48 -2 -48 -135 l0 -39 29 16 c36 18 45 43 33 88 l-9 34 118 11
c114 10 172 28 182 54 3 7 6 3 6 -10 1 -21 4 -23 31 -17 17 4 30 4 30 1 0 -14
-65 -37 -131 -46 -115 -16 -192 -75 -173 -132 5 -17 3 -20 -10 -15 -27 10 -75
-20 -94 -59 -16 -36 -13 -44 21 -57 5 -1 3 -15 -2 -30 -16 -41 -13 -103 5
-138 15 -29 15 -30 -5 -20 -27 15 -34 44 -26 110 7 55 7 56 -13 38 -25 -23
-68 -104 -77 -146 l-7 -34 -22 28 c-14 18 -27 25 -35 21 -18 -12 -5 -55 27
-90 20 -21 22 -27 9 -23 -62 22 -148 38 -184 34 -23 -2 -64 -18 -90 -35 -27
-17 -68 -34 -93 -38 l-45 -6 64 46 c74 52 81 61 81 99 0 35 -4 34 -40 -6 -16
-19 -47 -39 -69 -46 -60 -17 -161 -25 -201 -14 -33 9 -31 10 40 17 78 8 201
56 228 89 9 11 23 14 40 11 24 -5 30 1 55 46 20 35 27 59 23 75 -4 15 0 31 9
42 8 10 28 37 45 60 16 23 48 52 71 63 47 24 46 38 -2 21 -44 -15 -54 -14 -38
6 12 15 12 16 -5 10 -39 -15 -152 -30 -177 -24 -14 4 -49 25 -77 47 l-51 41
-16 -23 c-15 -22 -15 -24 25 -60 31 -27 58 -40 107 -52 36 -8 73 -22 82 -31
15 -15 12 -19 -27 -52 -24 -19 -53 -56 -66 -82 -13 -25 -32 -54 -43 -63 -33
-30 -108 -58 -189 -69 -114 -16 -279 -60 -438 -119 -77 -28 -147 -48 -157 -45
-23 8 -139 -24 -139 -38 0 -11 109 -1 148 15 15 5 83 16 152 24 69 8 166 21
216 29 52 9 132 15 190 13 l99 -3 -85 -27 c-47 -15 -128 -39 -180 -54 -52 -14
-99 -31 -105 -36 -7 -7 -3 -8 10 -5 11 3 106 13 210 23 193 17 357 15 424 -5
26 -8 37 -8 43 2 14 22 9 25 -57 38 -36 7 -65 16 -65 20 0 12 79 39 113 39 17
0 101 -17 186 -38 142 -36 151 -39 120 -48 -31 -9 -22 -12 94 -33 120 -22 161
-22 127 -1 -12 7 -12 12 -3 21 10 10 -10 26 -92 77 -58 36 -104 66 -102 68 1
2 110 -13 242 -32 132 -19 243 -33 248 -31 5 1 -15 20 -45 40 -61 43 -124 64
-279 97 -120 25 -126 27 -129 55 -6 53 2 75 51 130 49 56 51 61 46 104 -6 60
-2 68 41 90 73 35 220 60 422 71 196 10 286 24 260 40 -8 5 12 6 46 3 134 -12
375 56 433 123 43 48 43 102 1 137 -41 35 -125 65 -255 90 l-112 21 31 21 c17
11 32 29 34 39 7 33 -20 77 -59 96 -63 33 -207 70 -295 77 -86 6 -96 11 -69
33 54 45 -31 104 -166 116 -48 5 -78 13 -89 24 -64 64 -384 116 -551 90z m831
-745 c11 -10 20 -21 20 -25 0 -9 -140 6 -175 20 -47 18 -12 32 68 27 46 -3 74
-10 87 -22z m-1040 -469 c0 -3 -4 -8 -10 -11 -5 -3 -10 -1 -10 4 0 6 5 11 10
11 6 0 10 -2 10 -4z m372 -284 c-14 -4 -62 16 -62 28 0 5 16 2 36 -7 19 -10
31 -19 26 -21z"/>
<path d="M936 2189 c-106 -14 -183 -36 -274 -80 -104 -50 -182 -121 -182 -166
0 -36 34 -83 59 -83 16 0 18 6 13 46 -5 44 -3 47 46 94 104 100 231 143 517
176 45 5 55 9 40 15 -26 10 -131 9 -219 -2z"/>
<path d="M1629 2016 c-47 -58 -40 -55 -176 -55 -108 1 -133 4 -161 20 -50 29
-61 23 -25 -13 32 -31 36 -32 157 -42 109 -8 129 -7 170 8 52 20 70 44 58 77
-8 20 -9 21 -23 5z"/>
<path d="M2695 1916 c15 -23 15 -26 -4 -45 -28 -28 -27 -30 13 -21 47 10 56
18 56 44 0 23 -33 46 -66 46 -12 0 -12 -3 1 -24z"/>
<path d="M2175 1880 c-56 -21 -130 -25 -171 -10 -33 13 -44 5 -19 -14 17 -12
15 -14 -23 -21 -25 -4 -56 -2 -77 5 -48 16 -55 6 -14 -19 41 -25 79 -27 120
-5 21 11 43 13 70 9 56 -10 115 3 149 32 28 23 39 44 23 42 -5 0 -30 -9 -58
-19z"/>
<path d="M465 1860 c-3 -5 -15 -10 -26 -10 -28 0 -101 -38 -121 -64 -26 -32
-23 -71 8 -95 39 -31 92 -42 196 -40 63 1 104 -4 128 -14 52 -23 183 -39 245
-32 53 7 55 6 55 -16 0 -63 72 -150 154 -184 38 -16 126 -21 126 -7 0 5 -19
15 -42 22 l-43 12 48 18 c27 10 55 24 63 31 18 14 20 12 28 -27 5 -22 2 -35
-9 -44 -8 -7 -15 -21 -15 -32 0 -18 4 -19 38 -13 20 4 43 11 50 17 19 16 14
49 -10 75 -26 28 -13 30 27 3 41 -27 45 -26 38 18 l-6 37 25 -22 c13 -13 29
-23 35 -23 28 0 77 100 58 118 -4 4 -19 -9 -35 -27 l-28 -35 -31 27 c-17 14
-38 24 -46 21 -9 -4 -15 0 -15 10 0 22 9 20 53 -10 21 -14 40 -24 41 -22 1 1
12 16 24 32 24 32 20 50 -10 40 -19 -6 -34 6 -58 48 -9 14 -3 23 30 47 l40 29
-57 -5 c-41 -4 -70 -1 -97 11 -36 15 -56 14 -56 -3 0 -4 20 -17 45 -29 25 -12
45 -26 45 -31 0 -17 -60 -60 -98 -71 -20 -6 -88 -13 -150 -17 -62 -3 -109 -9
-105 -13 10 -8 129 -30 169 -30 l29 -1 -35 -20 -35 -20 33 4 c17 2 32 0 32 -4
0 -11 -60 -29 -99 -29 -45 0 -67 15 -109 74 -30 42 -32 47 -15 52 52 17 73 28
89 45 9 11 15 22 12 24 -3 3 -41 -3 -84 -14 -44 -11 -102 -23 -130 -26 -70 -9
-203 11 -235 34 -21 16 -37 18 -86 14 -117 -11 -203 18 -189 63 3 11 24 31 47
45 54 32 97 68 82 69 -6 0 -15 -4 -18 -10z m870 -323 c12 -6 15 -12 8 -14 -6
-2 -29 5 -50 16 -35 20 -36 21 -8 15 17 -4 39 -11 50 -17z"/>
<path d="M169 1631 c-75 -31 -124 -64 -139 -91 -33 -61 12 -110 117 -131 139
-26 489 -7 630 36 69 21 90 19 151 -16 44 -25 56 -28 69 -18 13 11 13 15 -4
27 -10 8 -34 21 -53 29 -34 15 -34 16 -12 26 23 10 26 25 16 65 -4 13 -14 22
-26 22 -17 0 -20 -5 -16 -31 l5 -31 -41 6 c-49 8 -50 9 -36 35 15 29 4 27 -81
-14 -55 -26 -86 -35 -126 -35 -54 0 -63 6 -41 28 16 16 8 15 -35 -3 -46 -19
-147 -19 -192 -1 -43 18 -45 6 -4 -28 30 -26 32 -26 207 -26 103 0 171 -4 162
-9 -60 -34 -472 -46 -579 -17 -123 34 -110 60 96 193 30 20 2 13 -68 -16z"/>
<path d="M805 1399 c-38 -11 -76 -17 -83 -14 -20 8 -37 -6 -21 -16 27 -17 122
-10 157 11 17 11 32 24 32 30 0 12 1 12 -85 -11z"/>
<path d="M2190 842 c-35 -7 -35 -7 24 -21 54 -12 296 -31 305 -24 32 24 -245
61 -329 45z"/>
</g>
</svg>
